<svg width="224" height="50" viewBox="0 0 224 50" fill="none" xmlns="http://www.w3.org/2000/svg">
<g clip-path="url(#clip0)">
<path d="M161.822 39.036C161.805 38.8755 161.768 37.1572 161.767 36.459L161.767 36.2548L161.948 36.2318C162.047 36.2192 162.186 36.2204 162.256 36.2345L162.383 36.2601L162.402 36.3404C162.419 36.4076 162.445 37.3107 162.446 37.8195C162.446 37.8972 162.451 38.2373 162.458 38.5753L162.469 39.1898L162.385 39.298C162.277 39.4356 162.121 39.4447 161.965 39.3224L161.844 39.2276L161.822 39.036ZM160.213 35.6028C160.103 35.4414 160.073 35.3069 160.027 34.75C159.999 34.4167 159.94 33.7368 159.896 33.239C159.853 32.7412 159.768 31.7653 159.708 31.0703C159.566 29.4172 159.511 28.7914 159.399 27.545C159.348 26.9771 159.298 26.3774 159.288 26.2124C159.278 26.0473 159.207 25.2136 159.131 24.3596C158.844 21.1394 158.846 21.1675 158.898 21.1003C158.923 21.0693 159.073 21.0474 159.232 21.0515C159.391 21.0555 160.682 21.0873 162.101 21.1222L164.681 21.1857L164.726 21.2517C164.75 21.288 164.744 21.8117 164.712 22.4154C164.68 23.0191 164.624 24.1201 164.587 24.862C164.519 26.2657 164.444 27.7721 164.324 30.1505C164.2 32.6212 164.119 34.2839 164.094 34.8721L164.069 35.4455L163.924 35.6602L163.779 35.8748L163.573 35.9092C163.304 35.9543 160.754 35.8904 160.559 35.8337C160.407 35.7897 160.286 35.709 160.213 35.6028ZM158.291 20.1156L158.009 19.6131L158.064 19.5204L158.12 19.4276L158.544 19.4379C158.777 19.4436 159.158 19.4515 159.391 19.4555C159.624 19.4595 159.95 19.4669 160.115 19.472C160.281 19.477 160.69 19.4873 161.024 19.4949C161.358 19.5024 161.854 19.5146 162.126 19.5221C163.19 19.551 164.08 19.5713 164.634 19.579C165.691 19.5938 165.685 19.5863 165.246 20.3532L164.975 20.8275L164.852 20.8471C164.785 20.8579 164.121 20.8521 163.377 20.8344C162.634 20.8166 161.446 20.788 160.737 20.7709C160.029 20.7537 159.283 20.7371 159.08 20.7339C158.629 20.7269 158.637 20.7337 158.291 20.1156L158.291 20.1156ZM157.692 18.6902C157.526 18.3725 157.405 17.7962 157.483 17.6957L157.536 17.6288L157.725 17.7609L157.915 17.893L158.005 17.7635L158.094 17.6339L158.171 17.679L158.248 17.7241L158.225 17.95L158.201 18.1759L158.429 18.3538L158.657 18.5317L158.701 18.4723C158.77 18.3813 158.77 18.003 158.701 17.9318C158.668 17.8971 158.611 17.8333 158.574 17.7901L158.507 17.7114L158.571 17.6862C158.606 17.6723 158.752 17.6647 158.896 17.6693L159.157 17.6776L159.195 17.8179L159.233 17.9581L159.456 18.1325C159.718 18.3376 159.749 18.3306 159.857 18.0408C159.973 17.7295 160.02 17.6892 160.243 17.707L160.441 17.7228L160.674 17.955C160.965 18.2456 160.96 18.2454 161.175 17.97L161.354 17.7413L161.557 17.734C161.819 17.7244 161.932 17.7784 162.102 17.9948C162.299 18.2442 162.335 18.2443 162.601 17.9966L162.833 17.7813L163.048 17.7744C163.312 17.7659 163.326 17.7767 163.49 18.1109C163.642 18.4196 163.671 18.428 163.906 18.2338C164.094 18.0783 164.159 17.9995 164.202 17.8756L164.233 17.7862L164.506 17.8C164.807 17.815 164.866 17.8666 164.723 17.9878C164.604 18.0884 164.584 18.2178 164.651 18.4537C164.715 18.6815 164.762 18.682 164.987 18.4571L165.159 18.2854L165.153 18.0667L165.147 17.8481L165.244 17.8383L165.34 17.8285L165.381 17.9166C165.434 18.0302 165.506 18.038 165.584 17.9384C165.65 17.8542 165.81 17.8181 165.878 17.8723C165.901 17.8902 165.929 18.0397 165.942 18.2046L165.964 18.5042L165.785 18.8244L165.605 19.1446L165.399 19.2101C165.134 19.2946 165.07 19.2399 165.122 18.9735C165.193 18.6144 164.79 18.7732 164.653 19.1586L164.62 19.2501L164.361 19.2419C164.059 19.2324 164.031 19.1825 164.24 19.0245L164.391 18.91L164.391 18.7663C164.392 18.6872 164.368 18.5671 164.338 18.4994L164.283 18.3762L164.22 18.398C164.184 18.4099 164.072 18.4869 163.97 18.569L163.785 18.7183L163.807 18.9498L163.828 19.1814L163.736 19.22L163.645 19.2587L163.527 19.1314L163.409 19.0042L163.266 19.1091L163.123 19.2141L162.883 19.2198C162.605 19.2264 162.478 19.1805 162.419 19.0515C162.395 19.0011 162.346 18.936 162.308 18.9067L162.24 18.8535L162.062 19.0188L161.885 19.1841L161.676 19.1831L161.466 19.1822L161.358 19.086C161.298 19.0331 161.213 18.9562 161.168 18.915L161.086 18.8402L160.928 19.0058L160.771 19.1714L160.542 19.1582C160.411 19.1506 160.243 19.1036 160.15 19.0482L159.987 18.9515L159.915 19.0357C159.756 19.2244 159.601 19.1483 159.609 18.8855C159.617 18.6477 159.608 18.6299 159.363 18.4376L159.145 18.2667L159.104 18.3185C158.965 18.4971 159.017 18.8164 159.207 18.9476L159.35 19.0467L159.315 19.0919C159.296 19.1167 159.177 19.1313 159.052 19.1242L158.824 19.1113L158.765 19.0024C158.733 18.9425 158.62 18.8266 158.516 18.7448L158.326 18.5961L158.288 18.644C158.268 18.6703 158.273 18.7609 158.3 18.8451C158.365 19.0492 158.296 19.1245 158.09 19.0753C157.87 19.0227 157.862 19.0149 157.692 18.6902L157.692 18.6902ZM158.022 18.7981C158.068 18.7821 158.019 18.4529 157.95 18.3088C157.886 18.1771 157.697 18.034 157.656 18.0864C157.557 18.2127 157.883 18.8464 158.022 18.7981L158.022 18.7981ZM160.646 18.8337C160.722 18.7045 160.751 18.6017 160.734 18.5249L160.707 18.4097L160.503 18.2507C160.262 18.0623 160.234 18.0666 160.13 18.308C160.027 18.5473 160.068 18.6649 160.326 18.8663L160.532 19.0274L160.646 18.8337ZM161.826 18.7986C162.072 18.5473 162.032 18.3234 161.704 18.1198L161.591 18.0498L161.444 18.2162C161.222 18.4672 161.28 18.7235 161.605 18.9302L161.662 18.966L161.826 18.7986ZM163.079 18.8897C163.34 18.6722 163.351 18.6312 163.218 18.3805C163.076 18.1097 163.009 18.0909 162.823 18.2692C162.742 18.3479 162.651 18.43 162.622 18.4517C162.52 18.5281 162.645 18.912 162.805 19.0107L162.879 19.0567L163.079 18.8897ZM165.622 18.7517C165.835 18.4764 165.784 18.1145 165.56 18.3151L165.42 18.4404L165.377 18.6814L165.334 18.9223L165.432 18.8967C165.486 18.8827 165.571 18.8174 165.622 18.7517ZM157.003 16.7145C156.996 16.45 156.994 16.2052 156.997 16.1705C157.008 16.0483 157.149 16.0131 157.571 16.0262C157.972 16.0387 161.144 16.115 163.132 16.16C166.562 16.2376 166.386 16.2263 166.424 16.3725C166.571 16.9342 166.425 17.5374 166.146 17.5248C166.034 17.5198 165.829 17.5151 165.69 17.5143C165.552 17.5135 164.546 17.4897 163.455 17.4614C162.365 17.4331 161.335 17.4078 161.167 17.4052C160.999 17.4026 160.539 17.3924 160.145 17.3826C158.899 17.3517 158.397 17.3395 157.773 17.325C157.439 17.3173 157.132 17.2849 157.091 17.2532L157.015 17.1954L157.003 16.7145ZM157.438 15.305C157.521 15.1246 157.6 14.8888 157.614 14.7811C157.643 14.5514 157.679 14.4945 157.805 14.4753C157.864 14.4664 157.965 14.3812 158.078 14.2445L158.257 14.0278L158.254 13.8783C158.252 13.7912 158.288 13.6807 158.34 13.6136L158.43 13.4983L158.514 13.598L158.598 13.6976L158.678 13.636C158.722 13.6021 158.828 13.5066 158.913 13.4236L159.067 13.2729L159.046 13.1848C159.005 13.0132 159.222 12.8596 159.357 12.9648L159.431 13.0228L159.629 12.9081L159.827 12.7934L159.903 12.6527L159.979 12.5119L160.148 12.5348L160.317 12.5578L160.279 12.644C160.258 12.6914 160.255 12.7659 160.272 12.8097L160.302 12.8891L160.382 12.8884C160.614 12.8864 160.823 12.629 160.682 12.5188C160.589 12.4466 160.604 12.4012 160.739 12.3445L160.826 12.308L160.965 12.4168L161.104 12.5256L161.202 12.4681C161.256 12.4364 161.308 12.3834 161.318 12.3503C161.328 12.3164 161.416 12.2887 161.519 12.2871L161.704 12.2843L161.79 12.3827C161.904 12.513 162.048 12.5364 162.126 12.4371C162.208 12.332 162.467 12.3347 162.552 12.4416C162.635 12.5466 162.827 12.6055 163.004 12.5806C163.167 12.5578 163.24 12.6002 163.3 12.7528L163.342 12.8588L163.55 12.9883L163.758 13.1177L163.82 13.0179L163.882 12.9181L164.015 13.0221L164.148 13.1261L164.161 13.2982L164.175 13.4704L164.387 13.6364L164.6 13.8025L164.64 13.7516C164.661 13.7236 164.653 13.652 164.621 13.5924L164.562 13.484L164.632 13.4961C164.694 13.5067 164.994 13.8433 164.992 13.8995C164.992 13.9108 164.987 13.9793 164.98 14.0517L164.969 14.1834L165.146 14.4071C165.346 14.6589 165.381 14.6766 165.433 14.5529L165.469 14.4658L165.552 14.5683C165.598 14.6247 165.647 14.7861 165.66 14.927C165.686 15.1951 165.857 15.5716 165.969 15.6076C166.005 15.6192 166.048 15.6852 166.065 15.7544L166.096 15.8801L165.996 15.8912L165.895 15.9022L165.801 15.6885C165.749 15.5709 165.681 15.4552 165.65 15.4313L165.595 15.3878L165.521 15.525C165.48 15.6005 165.451 15.71 165.456 15.7684L165.466 15.8745L165.239 15.8884C164.963 15.9052 164.896 15.8462 164.993 15.6732L165.066 15.5441L164.879 15.2814C164.639 14.9427 164.613 14.9367 164.426 15.1762L164.274 15.3706L164.405 15.562C164.612 15.8658 164.424 16.011 164.151 15.7576C164.032 15.6472 163.973 15.6512 163.819 15.7801C163.737 15.8486 163.138 15.8744 162.876 15.8208L162.759 15.797L162.605 15.6262C162.418 15.4189 162.375 15.418 162.184 15.6173C162.015 15.7947 161.981 15.8048 161.556 15.8029C161.193 15.8013 161.221 15.8108 160.928 15.5885L160.717 15.4278L160.57 15.5941L160.423 15.7603L160.128 15.7644C159.652 15.7709 159.506 15.7481 159.377 15.6467C159.252 15.5496 159.18 15.5596 159.08 15.6877C159.053 15.7226 158.97 15.7449 158.896 15.7373L158.762 15.7234L158.768 15.6514C158.771 15.6118 158.806 15.5368 158.846 15.4847C158.987 15.3024 158.879 14.962 158.657 14.8909L158.595 14.8707L158.439 15.0703C158.249 15.3129 158.201 15.4583 158.279 15.5574C158.367 15.6706 158.278 15.7383 158.064 15.72L157.873 15.7035L157.806 15.5134C157.768 15.4089 157.707 15.3133 157.668 15.301L157.599 15.2787L157.552 15.3912C157.482 15.558 157.389 15.6693 157.335 15.6501C157.307 15.6402 157.35 15.4962 157.438 15.305L157.438 15.305ZM158.262 14.8821L158.449 14.6255L158.421 14.5095C158.405 14.4456 158.363 14.3703 158.327 14.3419L158.261 14.2904L158.067 14.5388L157.873 14.7873L157.911 14.931C157.933 15.0101 157.978 15.0892 158.013 15.1067L158.076 15.1387L158.262 14.8821ZM160.206 15.3834L160.436 15.11L160.412 15.0484C160.398 15.0145 160.31 14.9101 160.216 14.8163L160.045 14.6457L159.95 14.6704C159.827 14.7027 159.494 15.1236 159.526 15.2066C159.557 15.2844 159.768 15.5124 159.885 15.5935L159.976 15.6568L160.206 15.3834L160.206 15.3834ZM159.271 14.8534C159.315 14.849 159.422 14.747 159.536 14.601L159.727 14.356L159.663 14.2534C159.628 14.197 159.554 14.1158 159.5 14.073L159.4 13.9952L159.31 14.0731C159.095 14.2596 158.945 14.4259 158.942 14.4827C158.932 14.6256 159.146 14.8661 159.271 14.8534ZM159.003 14.035L159.227 13.8328L159.218 13.7316C159.195 13.4673 159.026 13.4772 158.752 13.7591L158.582 13.9331L158.622 14.0537C158.643 14.12 158.688 14.1885 158.721 14.2058L158.78 14.2372L159.003 14.035ZM161.68 15.5343C162.081 15.2037 162.101 15.0943 161.814 14.8109L161.603 14.6032L161.526 14.611C161.483 14.6154 161.364 14.7038 161.261 14.8075L161.074 14.9962L161.086 15.0754C161.1 15.1632 161.346 15.4567 161.488 15.5546L161.58 15.6173L161.68 15.5343ZM160.837 14.7067C160.888 14.6681 160.997 14.5535 161.08 14.452L161.23 14.2675L161.049 14.0787L160.868 13.89L160.781 13.8988C160.733 13.9037 160.609 13.9843 160.507 14.0779L160.32 14.2482L160.324 14.3192C160.327 14.3888 160.42 14.4972 160.637 14.6834L160.745 14.7769L160.837 14.7067ZM160.105 14.0128C160.151 13.9932 160.264 13.9022 160.356 13.8107L160.522 13.6442L160.477 13.546C160.354 13.2809 160.102 13.2977 159.859 13.5872L159.733 13.7368L159.802 13.8289C159.923 13.9921 160.018 14.0494 160.105 14.0128L160.105 14.0128ZM159.616 13.4591C159.645 13.4492 159.749 13.3807 159.849 13.307L160.029 13.1729L160.025 13.0997C160.023 13.0595 159.991 13.0029 159.954 12.974L159.887 12.9215L159.709 13.011C159.502 13.1146 159.417 13.2064 159.432 13.3094C159.445 13.4003 159.547 13.4831 159.616 13.4591L159.616 13.4591ZM163.22 15.6959C163.257 15.7001 163.377 15.6207 163.488 15.5194L163.689 15.3352L163.677 15.2567C163.671 15.2135 163.565 15.0706 163.442 14.9391L163.219 14.7L163.15 14.707C163.113 14.7108 163.001 14.815 162.902 14.9385L162.722 15.1631L162.906 15.3956C163.128 15.6768 163.138 15.6862 163.22 15.6959L163.22 15.6959ZM162.45 14.7484C162.498 14.7195 162.604 14.6339 162.684 14.558L162.831 14.42L162.789 14.3302C162.766 14.2809 162.645 14.1604 162.52 14.0626L162.292 13.8846L162.147 13.9909C162.068 14.0494 161.97 14.1488 161.93 14.2119L161.858 14.3266L162.017 14.4827C162.104 14.5686 162.218 14.6753 162.269 14.7198L162.361 14.8007L162.45 14.7484ZM161.591 13.984C161.641 13.9634 161.746 13.87 161.826 13.7766L161.971 13.6067L161.825 13.4756C161.744 13.4035 161.637 13.3255 161.586 13.3022L161.492 13.2598L161.323 13.3992C161.229 13.4758 161.141 13.5534 161.127 13.5715C161.088 13.6209 161.193 13.7731 161.357 13.9046L161.502 14.0216L161.591 13.984L161.591 13.984ZM160.909 13.3452C160.958 13.3248 161.06 13.2475 161.137 13.1733L161.278 13.0384L161.138 12.929C160.976 12.8029 160.92 12.8065 160.703 12.9573L160.545 13.0671L160.572 13.1364C160.586 13.1746 160.648 13.2455 160.71 13.2939L160.821 13.3822L160.909 13.3452L160.909 13.3452ZM164.122 14.869L164.251 14.7671L164.259 14.644L164.267 14.5209L164.057 14.3192L163.847 14.1175L163.763 14.1182C163.709 14.1187 163.632 14.1781 163.552 14.2806L163.426 14.4422L163.54 14.565C163.604 14.6325 163.675 14.7112 163.699 14.74C163.723 14.7687 163.799 14.8324 163.867 14.8816L163.993 14.9709L164.122 14.869ZM161.556 12.8646C161.675 12.8411 161.826 12.7046 161.801 12.6418C161.736 12.4753 161.324 12.4736 161.276 12.6397C161.254 12.7154 161.462 12.8829 161.556 12.8646L161.556 12.8646ZM162.165 13.3749L162.259 13.4159L162.398 13.3139C162.594 13.1703 162.357 12.7829 162.108 12.8385C161.761 12.916 161.793 13.2121 162.165 13.3749ZM163.155 14.0715C163.205 14.0503 163.285 13.9734 163.332 13.9006L163.418 13.7681L163.183 13.5679L162.947 13.3676L162.857 13.3911C162.763 13.4158 162.573 13.6291 162.583 13.6988C162.586 13.721 162.695 13.8227 162.826 13.9246L163.063 14.11L163.155 14.0715L163.155 14.0715ZM165.301 15.1588C165.397 15.0218 165.377 14.9161 165.214 14.709C165.152 14.6295 165.082 14.5397 165.059 14.5095C165.036 14.4793 164.986 14.4508 164.948 14.4461L164.877 14.4375L164.826 14.5881L164.774 14.7387L164.938 14.9738C165.029 15.103 165.129 15.2243 165.16 15.2433L165.218 15.2778L165.301 15.1588ZM162.743 12.928C162.782 12.9285 162.835 12.8939 162.859 12.851L162.903 12.7731L162.818 12.6895C162.659 12.5351 162.337 12.5129 162.345 12.657L162.349 12.733L162.51 12.83C162.598 12.8833 162.703 12.9274 162.743 12.928L162.743 12.928ZM164.554 14.2778C164.588 14.2452 164.617 14.1759 164.617 14.1237L164.618 14.0289L164.363 13.8174L164.107 13.606L164.029 13.6843C163.9 13.8134 163.984 13.9617 164.331 14.2185L164.491 14.3371L164.554 14.2778L164.554 14.2778ZM163.599 13.5382L163.702 13.5435L163.728 13.4238L163.755 13.3041L163.552 13.1454C163.308 12.955 163.067 12.9758 163.097 13.1847C163.108 13.2604 163.495 13.5328 163.599 13.5382Z" fill="white"/>
</g>
<path d="M8.2 15V20.18H9.88V16.68H21.42V11.04H4V24.14H17.16V26.42H4V41H9.88V30.36H8.2V39.32H5.68V28.1H18.84V22.46H5.68V12.72H19.74V15H8.2ZM34.2863 16.68V11.04H28.4063V12.72H32.6063V15H28.4063V41H34.2863V18.96H32.6063V39.32H30.0863V16.68H34.2863ZM60.7891 30.64L49.2491 11.04H47.2891L62.4691 36.82V12.72H64.9891V39.32H61.1291L44.4491 11.04H42.7891V41H48.6691V26.36L46.9891 23.5V39.32H44.4691V14.38L60.1691 41H66.6691V11.04H60.7891V30.64ZM84.1041 11.04H74.6641V12.72H84.1041C87.6441 12.72 90.5841 13.86 92.5841 16.04C94.7041 18.34 95.8241 21.78 95.8241 26C95.8241 34.08 91.1241 39.32 83.8241 39.32H76.3441V16.68H84.1041C88.8841 16.68 91.6241 19.98 91.6241 26C91.6241 31.62 88.6641 35.36 84.1041 35.36H80.5441V18.94H78.8641V37.04H84.1041C89.6041 37.04 93.3041 32.6 93.3041 26C93.3041 19.1 89.8641 15 84.1241 15H74.6641V41H83.8241C92.0241 41 97.5041 35.02 97.5041 26C97.5041 16.38 92.1641 11.04 84.1041 11.04ZM143.337 11.04L132.257 30.44L124.177 16.38V39.32H121.657V12.72H124.957L132.277 25.54L133.257 23.86L125.937 11.04H119.977V41H125.857V22.68L132.257 33.82L144.317 12.72H147.617V39.32H145.097V16.38L135.057 33.84H136.997L143.417 22.68V41H149.297V11.04H143.337ZM183.878 25.4L196.238 11.04H188.698L177.458 24.14V39.32H174.938V12.72H177.458V20.56L179.138 18.6V11.04H173.258V41H179.138V24.76L189.458 12.72H192.578L181.658 25.4L193.638 39.32H190.438L181.658 29.04V31.64L189.678 41H197.298L183.878 25.4ZM208.122 35.36V24.14H218.362V26.42H210.642V28.1H220.042V22.46H206.442V37.04H219.102V39.32H203.922V12.72H218.822V15H206.442V20.18H208.122V16.68H220.502V11.04H202.242V41H220.782V35.36H208.122Z" fill="white"/>
<defs>
<clipPath id="clip0">
<rect width="19" height="22" fill="white" transform="translate(160.533 10.4977) rotate(37)"/>
</clipPath>
</defs>
</svg>
