<?xml version="1.0" encoding="UTF-8"?>
<svg width="252px" height="257px" viewBox="0 0 252 257" version="1.1" xmlns="http://www.w3.org/2000/svg" xmlns:xlink="http://www.w3.org/1999/xlink">
    <title>Microphone2</title>
    <g id="Page-1" stroke="none" stroke-width="1" fill="none" fill-rule="evenodd">
        <g id="Artboard" transform="translate(-804.000000, -40.000000)" fill="#FFFFFF" fill-rule="nonzero">
            <g id="Microphone2" transform="translate(929.964100, 168.500000) rotate(38.000000) translate(-929.964100, -168.500000) translate(847.464100, 70.000000)">
                <path d="M159.317971,195.764732 C158.343991,194.730033 148.962382,182.808842 145.247741,177.885703 L144.160899,176.445284 L145.269146,175.286211 C145.878687,174.648722 146.827672,173.89318 147.378012,173.607236 L148.378631,173.087326 L148.938878,173.546142 C149.407091,173.929587 154.386877,180.15664 157.09377,183.74356 C157.507455,184.291732 159.351171,186.662332 161.190916,189.011542 L164.5359,193.282843 L164.5359,194.512386 C164.5359,196.076388 163.523533,197 161.809233,197 L160.480753,197 L159.317971,195.764732 Z M130.130306,180.408575 C128.51946,179.880949 127.604189,179.09405 124.3285,175.420535 C122.368217,173.222186 118.355951,168.747424 115.412366,165.476635 C112.468773,162.205846 106.705839,155.787338 102.605838,151.213285 C92.8528937,140.332673 89.1547746,136.219437 81.7713452,128.040121 C78.4072416,124.313385 74.8806703,120.357253 73.9345167,119.248694 C72.988363,118.140142 68.0769746,112.646503 63.020327,107.040604 C43.9529777,85.9021792 44.1160539,86.0895308 44.1177262,85.3246279 C44.1177262,84.9730528 45.0217447,83.9913258 46.1247884,83.1430159 C47.2278322,82.294706 56.1795071,75.4010945 66.0174021,67.8238775 L83.9044795,54.0471243 L84.5581882,54.267361 C84.917728,54.3884927 87.6581092,58.117912 90.6479061,62.5549568 C93.6377108,66.9920102 99.1076926,75.0692969 102.803432,80.5044879 C109.796181,90.7884771 117.291326,101.831451 129.116581,119.272978 C141.401344,137.392238 149.684925,149.571639 152.640648,153.860554 L155.521951,158.041467 L155.673389,160.357637 L155.824826,162.673806 L154.609193,164.05037 C153.019199,165.85085 135.336713,179.456623 133.706747,180.133752 C132.440253,180.659874 131.190663,180.7559 130.130306,180.408575 L130.130306,180.408575 Z M34.7503738,81.7271444 L30.1629612,79.7360018 L30.0496387,78.7736491 L29.9363084,77.8112886 L32.8742376,75.5470917 C34.4900994,74.301788 37.1242959,72.2566799 38.7280197,71.0024026 C40.3317357,69.7481254 42.5872414,68.0042721 43.7402416,67.1271646 C44.8932496,66.2500648 47.7289257,64.0687862 50.041744,62.2798859 C52.3545701,60.4909941 55.7951295,57.8414838 57.6874368,56.3920912 C65.0731128,50.7351123 71.2375392,45.9684958 75.0468356,42.9690313 C82.3121293,37.2482755 82.231773,37.2280094 83.3251048,45.0568899 L84.001194,49.898126 L83.2685566,50.7147375 C82.8656053,51.1638665 78.3212298,54.7821669 73.1699505,58.7553854 C68.0186634,62.7286115 59.7861851,69.076526 54.8755455,72.8618732 C49.9649059,76.6472203 44.8040628,80.6413099 43.407014,81.7376381 C40.2989332,84.1766764 40.3941188,84.1767927 34.7503738,81.7271676 L34.7503738,81.7271444 Z M23.1033283,74.9701144 C20.2848609,73.644444 16.4007312,70.2438906 16.4007312,69.1019887 L16.4007312,68.3418169 L18.3940279,68.2274095 L20.3873324,68.1129944 L20.305455,66.707159 L20.2235698,65.3013159 L20.988136,65.1942379 L21.7527021,65.0871676 L22.7945719,66.8095137 L23.8364416,68.5318676 L26.330707,68.5318676 L28.8249645,68.5318676 L28.8122492,67.8667134 C28.7928252,66.8485026 26.7826865,64.178889 25.940666,64.0530107 C25.5295862,63.9915839 24.8003031,63.8576774 24.32003,63.7555167 L23.4468062,63.5697705 L23.7465995,63.0399181 C23.9114933,62.7485054 24.8665009,61.8879567 25.8688516,61.127591 L27.6913026,59.7451009 L28.6919684,60.527695 L29.6926342,61.3102814 L32.1379182,61.3102814 C35.0135969,61.3102814 35.1854957,61.0910142 34.3799441,58.4505783 C33.5146225,55.614236 33.6168991,55.0740216 35.228213,53.9701392 L36.6617775,52.9880321 L39.4777799,53.3434465 C43.0031109,53.788395 42.969466,53.8140128 42.969466,50.6848928 L42.969466,48.0861139 L44.3144677,46.9119784 C46.0454151,45.4009419 47.0995945,45.1600125 49.4072253,45.7480342 C52.0674063,46.4258925 52.3134208,46.2280006 52.8091317,43.0114793 L53.2400022,40.2156539 L54.6672636,38.9803864 C56.4188441,37.4644171 56.572294,37.4623075 59.465743,38.9145387 C62.1388656,40.2561552 62.3763381,40.1590978 62.9430833,37.4932225 C63.3969662,35.358239 63.4212112,34.4430965 63.0532777,33.3336297 L62.7877222,32.5329023 L64.7220135,31.1211802 C66.846442,29.5706816 67.5245517,29.6065837 67.1935551,31.2520378 C66.9187634,32.6180544 67.4703048,33.6420045 69.1787078,34.9375587 C70.8290492,36.1890903 71.1515117,35.9331377 71.4856599,33.106436 L71.7407545,30.948495 L70.5380631,29.4387149 L69.3353716,27.9289349 L69.9411989,27.326588 L70.547034,26.7242489 L71.2929562,27.1211496 C72.2545165,27.6328067 72.7876401,27.2890262 72.7876401,26.157331 C72.7876401,25.200485 73.6897737,24.0589708 74.4396588,24.06691 C74.6874596,24.0692784 75.6757767,24.9675364 76.6359172,26.062391 L78.3816315,28.0530294 L78.8621464,31.3019703 L79.342677,34.5509035 L78.2909626,36.1480306 C76.9348135,38.2074483 76.2081359,38.1746254 75.1484803,36.0061053 C73.7201423,33.083083 71.8232247,36.4250327 72.9377747,39.9008727 L73.2024565,40.7263027 L71.3987509,42.0956 C69.2945655,43.6930218 68.8397543,43.4944861 69.4176625,41.2307933 L69.8366445,39.589636 L69.0768681,38.5723714 C68.6590015,38.012876 67.8564142,37.2985571 67.2933588,36.9849858 L66.269626,36.414857 L65.9508611,36.9206739 C65.7755376,37.1988704 65.4219343,38.3601466 65.1650767,39.5012885 L64.6980728,41.5760862 L66.0749487,43.0913574 L67.4518246,44.6066131 L67.0326398,45.385368 L66.6134471,46.164123 L65.135886,45.9159185 L63.6583171,45.6677295 L63.2445616,47.1954567 L62.8308061,48.7231839 L61.2250775,50.0897124 C59.3705574,51.6679693 58.2667569,52.0415325 57.174728,51.4604678 C56.7484599,51.2336464 56.0638522,51.0480631 55.6533808,51.0480631 L54.9070764,51.0480631 L54.5769691,53.1939282 L54.2468618,55.3397855 L52.8190933,56.486434 L51.3913248,57.6330826 L50.1431,57.5517154 C49.4565733,57.5069638 48.4648082,57.4363928 47.9391734,57.3948987 L46.9834559,57.3194338 L46.7923202,59.3560027 L46.6011767,61.3925715 L44.9738477,62.5615028 C44.0422113,63.2307056 42.6530491,63.8224579 41.7244239,63.9456845 L40.102337,64.1609264 L40.064503,65.1495096 C39.9799265,67.3618815 38.5209157,67.6793618 37.1840424,65.7762875 C35.9749231,64.055066 35.8129703,63.9832541 33.1256112,63.9767081 L30.7363449,63.971279 L30.7363449,64.5602779 C30.7363449,66.5891374 32.7870088,68.5551818 34.7766626,68.433864 L36.2794671,68.3422357 L36.2794671,68.8553586 C36.2794671,69.1375728 35.5510032,69.8931453 34.6606566,70.534388 L33.041846,71.7003023 L32.0622502,71.2565404 C31.523471,71.0124698 30.1445981,70.8127785 28.9980803,70.8127785 L26.9134906,70.8127785 L26.9134906,71.3570181 C26.9134906,71.6563495 27.4295773,72.2666307 28.0603438,72.7131925 C29.5871827,73.794133 29.520353,74.7044281 27.8562353,75.4934208 C26.079505,76.3358052 25.9835081,76.3252494 23.1032737,74.9705254 L23.1033283,74.9701144 Z M25.9203994,73.9132559 C26.1489167,73.545626 24.0693039,71.4902181 22.8291217,70.8579644 C21.6957094,70.2801495 19.6501549,70.3119487 19.6501549,70.9073695 C19.6501549,72.3431427 25.232804,75.0193799 25.9203994,73.9132404 L25.9203994,73.9132559 Z M43.9615586,59.694928 C43.7926007,58.3638828 43.4438962,57.4780265 42.914244,57.0343422 L42.1202141,56.3691958 L39.8914184,56.3691958 C37.2490779,56.3691958 37.0791214,56.5564466 37.6555396,58.832448 C38.2268482,61.0882453 39.1330773,61.6903673 41.9569429,61.6903673 L44.2148357,61.6903673 L43.9615586,59.694928 Z M51.7984652,52.9444905 C52.1401645,49.8116554 50.6757712,48.4541083 47.358847,48.8288038 L46.2189053,48.9575751 L46.1037496,50.941621 C45.9300254,53.9349661 47.6867778,55.4238052 50.9974536,55.0889828 L51.5708841,55.0309686 L51.7984652,52.9444905 Z M60.8074216,46.6770753 C61.4224929,43.7070289 61.2810874,43.3565241 59.0482197,42.3167286 C56.6373607,41.1940458 56.0825195,41.4297866 55.7706428,43.7092859 C55.6331143,44.7144357 55.4529778,45.793383 55.3703203,46.1069465 C55.0791937,47.2113951 57.9729859,49.2276823 59.5847133,49.0433787 L60.3351444,48.9575751 L60.8074216,46.6770753 Z M77.3687887,31.6861669 C77.3542791,28.5688203 75.0821343,26.2984187 74.6273855,28.9468897 L74.3433811,30.6009528 L75.3308244,32.5383625 L76.3182678,34.4757721 L76.846672,33.7573038 C77.1372993,33.3621404 77.3722444,32.4301288 77.3687887,31.6861669 L77.3687887,31.6861669 Z M7.91965627,64.8260495 C6.46832151,62.996896 5.14829796,61.2849971 4.98628273,61.021816 C4.41608179,60.0956058 5.18266057,59.0743004 8.12775095,56.836458 C10.919134,54.7154041 32.8979131,37.7678902 46.6582319,27.1261754 C70.3997311,8.76537268 69.1458975,9.65288092 70.1835236,10.474146 C74.1673009,13.627286 76.3809708,18.687386 74.4123715,20.1406254 C73.6239114,20.7226751 72.204677,21.8189413 71.2585234,22.5767786 C70.3123775,23.3346003 63.345239,28.7112808 55.7760097,34.5249445 C48.2067805,40.3386082 41.067626,45.83777 39.9112091,46.7453117 C38.7547999,47.6528535 35.5722838,50.1168968 32.8389545,52.2209576 C24.1979628,58.8725926 20.7231343,61.5505748 16.4007312,64.8896014 C14.0879051,66.6762362 11.827243,68.1411251 11.3770265,68.14491 L10.5584553,68.1518903 L7.91965627,64.8260495 Z M3.38706783,52.4835183 C2.99154285,50.7532999 2.27630907,48.6535049 1.79766714,47.8173252 C0.777514902,46.0350957 0.717721616,45.4368595 1.47646057,44.6032936 C1.82877681,44.2162274 2.06041357,43.0609465 2.1043946,41.4715056 L2.17405592,38.9530158 L1.3549784,37.9177343 C0.877786642,37.314573 0.535900104,36.3359562 0.535900104,35.5732017 L0.535900104,34.2639738 L1.63626037,34.5042595 L2.73660425,34.7445452 L2.95287419,33.8693146 C3.07182109,33.3879288 3.28222481,32.1314722 3.42043193,31.0771732 L3.67171975,29.1602624 L3.0595192,28.6551125 C1.86799153,27.6719197 2.5258339,25.3924126 4.00110937,25.3924126 L4.81400942,25.3924126 L5.55096069,23.4919986 L6.28791975,21.5915769 L6.05657083,20.1796221 L5.82522191,18.7676751 L7.09897101,17.9957764 L8.3727357,17.2238777 L8.5725693,18.0414664 C8.68247506,18.4911383 9.05512023,19.0363629 9.40066535,19.2530707 L10.02892,19.6470784 L10.5725201,19.1985389 C12.1397439,17.9053425 12.1894351,14.9401203 10.6438976,14.9401203 C9.63115618,14.9401203 9.49124067,14.5377827 10.1064835,13.3948027 L10.5022191,12.6596282 L12.0273653,12.6596282 L13.5525192,12.6596282 L13.9146176,11.7127175 C14.1137726,11.1919162 14.1860472,10.5308959 14.0752365,10.2437878 C13.9620622,9.95056032 14.4161168,9.26802515 15.1112556,8.68647962 L16.3487465,7.65119811 L17.4573132,7.8716287 C18.9244368,8.16336707 20.0324263,7.53122977 20.0324263,6.40246634 C20.0324263,5.20831287 21.8067462,3.80108762 22.9520548,4.08688808 C24.0777053,4.3677806 25.6942537,3.72634474 26.7704938,2.57174639 C27.7586471,1.51164599 28.4792712,1.40917342 29.698555,2.15539311 L30.5452482,2.6735791 L32.647811,2.44045598 L34.7503738,2.20733518 L34.6403354,1.1621044 L34.5302971,0.116878278 L35.9887696,0.116878278 L37.4472499,0.116878278 L38.4535947,1.25712665 L39.4599395,2.39737658 L41.788141,2.39737658 L44.1163425,2.39737658 L44.1163425,1.81910171 C44.1163425,1.50105298 43.6778428,1.04218492 43.1419031,0.799402595 L42.1674637,0.357975247 L42.7100419,0.0560828388 C43.1813596,-0.206160606 47.0126388,0.514066718 47.3007308,0.919072336 C47.3586129,1.00048064 47.686146,1.51341511 48.0285161,2.05893447 L48.6510216,3.05078678 L51.0460917,3.65063159 C53.7438805,4.32629194 54.0740892,4.25966716 53.7693814,3.1011575 L53.554812,2.28536347 L54.6654148,2.5495327 C55.2762424,2.6948264 56.4641201,3.56637919 57.3051499,4.48631953 C58.9048016,6.2360789 62.0660761,7.95244523 63.0193285,7.58875532 C63.3252065,7.47205221 63.9709505,7.69903654 64.4542972,8.09316062 L65.3331219,8.80975197 L64.7088067,9.44141617 L64.0844915,10.0730804 L62.3059669,9.08584669 C61.3277753,8.54287903 60.2529939,8.09862853 59.9175509,8.09862853 L59.307675,8.09862853 L59.5324946,9.4760618 C59.6561454,10.2336431 60.0416307,11.1658409 60.3891182,11.547602 L61.0209223,12.2417168 L59.5453191,13.5951843 C57.7591654,15.2334874 56.9879607,15.1881619 56.7317194,13.4298129 L56.5405837,12.118173 L53.8764633,11.2925103 C50.4415126,10.2279503 50.2328875,10.3285676 50.2328875,13.0498278 L50.2328875,15.259113 L52.1398135,15.8888459 C55.1660246,16.8882098 54.6557106,18.9519399 51.4526549,18.667779 C50.0577278,18.5440258 49.6795675,18.8957173 49.3123829,20.6582856 C49.1173546,21.5944466 45.182933,25.0773677 43.1161682,26.1434402 L42.197099,26.6175121 L40.2395378,26.2637653 C37.8628074,25.8342665 37.5691221,26.0620652 37.3316495,28.5192446 C37.1203253,30.7057972 36.9414057,30.9656743 34.0463342,33.2909102 C31.5660791,35.2829834 31.8069684,35.1961561 28.6338211,35.2416755 L26.3401148,35.2745605 L26.2250137,37.2572026 L26.1099126,39.2398369 L24.1224508,40.8967232 C20.9230693,43.5639247 19.8100717,44.2065015 18.3896048,44.2065015 C17.0279171,44.2065015 16.5918669,44.6728718 16.5918669,46.1292447 C16.5918669,46.5254163 16.1471187,47.139304 15.6035342,47.4934153 L14.6151937,48.1372718 L14.2713881,47.5972049 C14.0822963,47.3001615 13.9249459,46.575535 13.921732,45.9869161 C13.9104208,43.9242098 11.3642722,42.1198294 9.47953944,42.8389104 L8.94618178,43.0423944 L8.94618178,45.3100815 C8.94618178,48.0671895 9.39382403,49.3566087 10.4459908,49.630175 C11.6475199,49.9425751 11.4004602,50.9121176 9.85288669,51.9576601 L8.46589309,52.8947208 L6.9952279,51.9270863 C6.18636088,51.3948839 5.25803209,51.0611318 4.93227765,51.1854202 L4.33998479,51.4113962 L4.61750677,52.4649661 C5.02896102,54.0270365 4.98671177,55.3259645 4.51920863,55.4870469 C4.27865475,55.5699342 3.80596406,54.3158741 3.38706783,52.4834872 L3.38706783,52.4835183 Z M6.74730224,44.9536356 L6.65099332,42.1160756 L5.84480977,41.4509292 C5.40141117,41.0850986 4.71363627,40.7857827 4.31641852,40.7857827 L3.594203,40.7857827 L3.594203,43.6088237 L3.594203,46.4318646 L4.61995622,47.2340734 C5.18411933,47.6752836 5.91523558,47.9811377 6.2446642,47.9137311 L6.84361896,47.7911956 L6.74730224,44.9536356 Z M22.6293193,37.7776704 L22.7413703,34.5795228 L22.2503321,34.2777871 C21.9802599,34.1118417 20.826425,33.8601781 19.6862493,33.7185398 L17.6132048,33.4610205 L17.1025397,34.1553834 C16.4340329,35.06436 16.4082746,39.8677317 17.0696983,40.2749245 C17.6891614,40.6562669 20.3367519,41.1019832 21.561543,41.0311175 L22.5172527,40.9758179 L22.6292959,37.7776704 L22.6293193,37.7776704 Z M13.4571385,39.1894313 C13.7304325,38.9177109 13.9158814,37.6078858 13.9158814,35.9493165 L13.9158814,33.1653033 L12.9352793,32.7946253 C12.395954,32.5907536 11.4634674,32.4239551 10.8630929,32.4239551 L9.77150073,32.4239551 L9.57457683,33.4691797 C9.10323569,35.9709865 8.969241,37.9684424 9.24439152,38.3913331 C9.93617604,39.4545746 12.6696146,39.9724287 13.4571385,39.1894313 Z M7.28652612,34.8908294 L7.72943328,32.2339122 L7.13170325,31.5687657 C5.56996348,29.8308768 4.47447873,30.8316833 4.10644384,34.3325438 L3.87922156,36.4940293 L4.78799369,37.1282219 C5.28781563,37.4770282 5.95480134,37.7141107 6.27018849,37.6550805 L6.84361896,37.5477466 L7.28652612,34.8908294 Z M33.4609061,30.7135763 C34.4302594,26.1705703 33.9861821,25.2873821 30.5242172,24.8729996 L27.9871565,24.5693249 L27.5025383,25.051145 C27.2360077,25.3161488 26.8970075,26.5956172 26.7492132,27.8944211 L26.4804983,30.2558771 L26.983737,30.7488424 C27.5409496,31.2946875 30.7751383,32.0085488 32.2637142,31.9142525 L33.2176063,31.853834 L33.4609061,30.7135763 Z M23.3292557,29.5208422 C23.4684691,28.9693586 23.6007632,27.5596452 23.623253,26.3881467 L23.6641293,24.2581347 L21.4324551,23.9219938 L19.2007731,23.5858451 L18.6528747,24.1305889 C18.3515368,24.4301917 17.9406442,25.6792337 17.7397887,26.9062257 L17.3746011,29.137111 L17.7762732,29.6183107 C18.17016,30.0901877 19.3799657,30.34151 21.8409918,30.4627116 L23.0761347,30.5235179 L23.3292557,29.5208422 Z M14.6589329,28.6630856 C14.8721527,28.266976 15.1578577,27.0017242 15.2938416,25.8513916 L15.5410808,23.7598954 L14.709568,23.317452 C12.4655607,22.1234149 10.8399556,23.6320625 10.7255644,27.0148316 L10.6664342,28.7625318 L11.6221439,29.0350278 C13.3145786,29.5175692 14.2613719,29.4016029 14.6589017,28.6630856 L14.6589329,28.6630856 Z M8.39375891,27.449077 C8.53525798,27.221449 8.88272991,26.1619147 9.16592308,25.0945703 L9.6808162,23.153942 L9.26669407,22.6578278 C9.03891792,22.3849595 8.5211619,22.1617058 8.11611212,22.1617058 L7.37966791,22.1617058 L6.64217839,23.7770592 C5.78904951,25.6457282 5.69815436,26.7620977 6.34665213,27.4068539 C6.91888128,27.9757883 8.05182557,27.9991569 8.39375891,27.449046 L8.39375891,27.449077 Z M44.7958719,23.3622501 C45.0644854,23.1927758 45.4598933,21.9697781 45.6745641,20.6444878 L46.0648625,18.2348677 L45.5684574,17.7450978 C45.2954365,17.4757274 43.8169626,17.0501221 42.2829548,16.7993116 L39.4938574,16.3432954 L39.0645159,16.7701572 C38.8283851,17.0049362 38.6212343,18.356837 38.6041973,19.7743838 L38.573228,22.3517487 L41.0580778,22.9796591 C44.0628055,23.7389467 44.1798568,23.7509218 44.7958797,23.3622501 L44.7958719,23.3622501 Z M34.516591,20.9264383 C34.6929832,20.4560814 34.9556914,19.269583 35.1003732,18.2897717 L35.3634324,16.5082868 L34.6041786,16.1042895 C34.1865929,15.8820905 32.722067,15.7002921 31.3496843,15.7002921 L28.854436,15.7002921 L28.4352512,17.2480528 C28.2046979,18.0993255 28.0690573,19.3393474 28.1338041,20.0036562 L28.2515419,21.2114988 L30.1629612,21.4368466 C31.2142387,21.5607937 32.5517205,21.6890687 33.1351282,21.7219149 L34.1958681,21.7816354 L34.516591,20.9264383 Z M24.6184426,20.2638823 C24.842724,19.8472195 25.0638148,18.6072054 25.109746,17.5082789 L25.1932616,15.5102492 L23.5036508,15.3902188 C22.5743625,15.324216 21.4275016,15.3666408 20.9550605,15.4845383 L20.0960888,15.6988883 L19.6819745,17.6187153 C19.4542139,18.6746197 19.2678601,19.706667 19.2678601,19.9121597 C19.2678601,20.4745172 20.7899327,20.9703057 22.5993953,20.9973583 L24.2106547,21.0214791 L24.6184426,20.2639133 L24.6184426,20.2638823 Z M16.5836214,19.5164457 C16.804135,19.1067865 17.0916108,17.9950396 17.2224617,17.0459029 L17.4603634,15.3202062 L15.9260747,15.3202062 C14.157855,15.3202062 13.7964196,15.6546641 13.1212742,17.9156424 L12.630002,19.5608715 L13.1773621,19.9052647 C13.4784192,20.0946717 14.277777,20.2522717 14.9537103,20.2554671 L16.1826826,20.2616719 L16.5836214,19.5168335 L16.5836214,19.5164457 Z M46.5329663,12.557925 L46.8714595,11.125929 L46.2704297,10.2139276 L45.6694078,9.30192621 L43.1701655,9.0358211 L40.6709231,8.76971599 L40.0999265,9.24087948 C39.7376018,9.53984636 39.5289299,10.3832623 39.5289299,11.5486879 L39.5289299,13.3853405 L40.9624944,13.6179169 C41.7509545,13.745835 42.6541022,13.9087013 42.9694894,13.9798307 C43.2848687,14.0509523 44.1395109,14.0823405 44.8686926,14.0495563 L46.1944732,13.9899133 L46.5329663,12.557925 Z M18.425746,12.5625786 C19.1152683,11.7365437 19.4135171,9.94346367 18.912603,9.63566281 C17.5848332,8.81978036 14.7711555,11.0819375 15.3259264,12.5193084 C15.5787354,13.1743256 17.8881993,13.2065592 18.425746,12.5625863 L18.425746,12.5625786 Z M25.2859041,12.8010106 L26.143105,12.5725915 L26.5454323,11.0870564 C27.1118421,8.99568429 23.4431086,7.56711634 22.0433685,9.33399688 C20.0955818,11.7926809 21.8859479,13.7069934 25.2859041,12.8010106 Z M35.7147502,12.2635497 C35.9445623,11.8366103 36.0796335,10.853146 36.0149101,10.0780674 L35.897227,8.66884269 L33.2303216,8.55448962 L30.5634163,8.44015206 L30.0764735,9.10224267 C29.5664637,9.79571368 29.4055484,12.3500978 29.8443913,12.786414 C29.9845642,12.9257799 31.2687196,13.0397994 32.6980717,13.0397994 L35.2968993,13.0397994 L35.7147502,12.2635419 L35.7147502,12.2635497 Z M56.0934173,8.10217298 C56.0187634,6.60636133 55.3180704,5.97318474 53.1118347,5.40774822 C52.2643146,5.19053634 51.3128408,4.94138564 50.9974536,4.85407198 C50.6820743,4.76676453 50.1889064,4.84212789 49.901532,5.02157394 L49.3790487,5.34781834 L49.8266988,6.69643842 L50.2743644,8.04505074 L52.642904,8.79608607 C53.9456019,9.20915007 55.2694869,9.51434494 55.5848662,9.47429345 L56.1582967,9.4014655 L56.0934173,8.10217298 Z M26.8364263,6.46529693 C27.1093926,6.2505204 27.2814163,5.717744 27.2187055,5.28135799 L27.1046887,4.48792733 L26.0787873,4.37009419 C24.1819633,4.15223468 21.8752608,5.77031352 22.6904621,6.74691385 L23.1206071,7.26222395 L24.7303687,7.05901923 C25.6157306,6.94724888 26.5634522,6.68008121 26.8364263,6.46528917 L26.8364263,6.46529693 Z M46.3289047,6.00551135 C46.3894391,5.58590136 46.215473,4.93877965 45.9423897,4.56746957 L45.4458675,3.89235524 L42.5829743,3.81006276 L39.7200656,3.72775942 L39.6051673,4.71050397 C39.4156074,6.3318178 40.7733401,6.91571337 44.4986217,6.81495641 L46.2189053,6.76842097 L46.3289047,6.00549584 L46.3289047,6.00551135 Z M35.9046065,6.04987513 L36.6315415,5.52138774 L36.1770112,4.52954086 L35.722473,3.53769553 L33.4970317,3.53769553 C30.8272166,3.53769553 29.293903,5.01749433 30.6089653,6.32496933 C31.0859464,6.79921192 35.1653774,6.58728956 35.9046065,6.04987513 L35.9046065,6.04987513 Z" id="path60"></path>
            </g>
        </g>
    </g>
</svg>