<svg width="500" height="500" viewBox="0 0 500 500" fill="none" xmlns="http://www.w3.org/2000/svg">
<rect width="500" height="500" fill="#707070"/>
<g clip-path="url(#clip0)">
<path d="M248.184 243.553C269.692 243.553 288.316 235.84 303.533 220.62C318.75 205.403 326.464 186.784 326.464 165.274C326.464 143.772 318.75 125.15 303.53 109.928C288.311 94.7139 269.689 87 248.184 87C226.674 87 208.055 94.7139 192.838 109.931C177.621 125.148 169.905 143.769 169.905 165.274C169.905 186.784 177.621 205.406 192.84 220.623C208.06 235.837 226.681 243.553 248.184 243.553V243.553Z" fill="white"/>
<path d="M385.152 336.908C384.713 330.575 383.826 323.667 382.519 316.373C381.2 309.023 379.501 302.076 377.468 295.726C375.368 289.162 372.511 282.681 368.98 276.469C365.316 270.023 361.011 264.409 356.181 259.789C351.13 254.957 344.946 251.071 337.795 248.237C330.669 245.418 322.772 243.99 314.324 243.99C311.006 243.99 307.797 245.351 301.601 249.385C297.788 251.872 293.327 254.749 288.348 257.93C284.09 260.642 278.323 263.184 271.199 265.485C264.249 267.734 257.192 268.875 250.227 268.875C243.262 268.875 236.208 267.734 229.25 265.485C222.134 263.186 216.366 260.645 212.114 257.932C207.182 254.781 202.719 251.905 198.848 249.383C192.659 245.349 189.448 243.987 186.131 243.987C177.68 243.987 169.786 245.418 162.662 248.24C155.516 251.069 149.329 254.954 144.273 259.792C139.446 264.414 135.139 270.025 131.479 276.469C127.951 282.681 125.094 289.16 122.991 295.728C120.961 302.078 119.262 309.023 117.943 316.373C116.636 323.658 115.749 330.568 115.31 336.916C114.878 343.134 114.66 349.589 114.66 356.107C114.66 373.072 120.053 386.807 130.688 396.935C141.191 406.931 155.089 412.001 171.99 412.001H328.479C345.38 412.001 359.273 406.933 369.779 396.935C380.416 386.814 385.809 373.077 385.809 356.105C385.807 349.556 385.586 343.097 385.152 336.908V336.908Z" fill="white"/>
</g>
<defs>
<clipPath id="clip0">
<rect width="325" height="325" fill="white" transform="translate(88 87)"/>
</clipPath>
</defs>
</svg>
